<svg xmlns="http://www.w3.org/2000/svg" width="64" height="64" viewBox="0 0 64 64">
  <ellipse cx="32" cy="56" rx="12" ry="3.5" fill="#000" opacity="0.15"/>
  <path d="M20 30 Q14 42 18 50 L24 51 L26 40 Z" fill="#3b7dd8"/>
  <path d="M44 30 Q50 42 46 50 L40 51 L38 40 Z" fill="#3b7dd8"/>
  <rect x="22" y="24" width="20" height="24" rx="8" fill="#4a90e2"/>
  <circle cx="32" cy="16" r="12" fill="#f5c396"/>
  <path d="M20 14 Q32 2 44 14 Q40 8 32 7 Q24 8 20 14 Z" fill="#6b4423"/>
  <circle cx="27" cy="16" r="2.5" fill="#2c2c2c"/>
  <circle cx="37" cy="16" r="2.5" fill="#2c2c2c"/>
  <circle cx="28" cy="15" r="0.9" fill="#fff"/>
  <circle cx="38" cy="15" r="0.9" fill="#fff"/>
  <ellipse cx="32" cy="22" rx="4" ry="3" fill="#c1694f"/>
</svg>
